<svg width="20" height="17" viewBox="0 0 20 17" fill="none" xmlns="http://www.w3.org/2000/svg">
<path d="M0.358398 12.9449C0.358398 13.178 0.43971 13.3731 0.602331 13.5303C0.770375 13.6821 0.979069 13.758 1.22843 13.758H3.13924C3.83851 13.758 4.42124 13.6414 4.88743 13.4084C5.35903 13.1752 5.83605 12.7769 6.3185 12.2131L11.3191 6.27738C11.5576 5.99551 11.7853 5.77326 12.0022 5.61063C12.2244 5.44259 12.4575 5.32334 12.7014 5.25287C12.9508 5.17698 13.2326 5.13903 13.5471 5.13903H15.1733V6.92788C15.1733 7.12302 15.2275 7.27751 15.3359 7.39135C15.4443 7.49976 15.5988 7.55397 15.7994 7.55397C15.8915 7.55397 15.9783 7.53771 16.0596 7.50518C16.1408 7.47266 16.214 7.42929 16.2791 7.37509L19.4746 4.71621C19.621 4.58612 19.6942 4.43434 19.6942 4.26087C19.6942 4.08741 19.621 3.93563 19.4746 3.80553L16.2791 1.13853C16.214 1.08432 16.1408 1.04366 16.0596 1.01656C15.9783 0.984035 15.8915 0.967773 15.7994 0.967773C15.5988 0.967773 15.4443 1.02198 15.3359 1.13039C15.2275 1.23881 15.1733 1.39059 15.1733 1.58574V3.51281H13.5552C12.8343 3.51281 12.2217 3.63207 11.7176 3.87057C11.2134 4.10367 10.7012 4.5292 10.1808 5.14716L5.26959 10.9853C4.92266 11.4027 4.58386 11.6981 4.2532 11.8716C3.92254 12.0451 3.53224 12.1318 3.08232 12.1318H1.22843C0.979069 12.1318 0.770375 12.2104 0.602331 12.3676C0.43971 12.5194 0.358398 12.7118 0.358398 12.9449ZM0.358398 4.32592C0.358398 4.56443 0.43971 4.75958 0.602331 4.91136C0.770375 5.06314 0.979069 5.13903 1.22843 5.13903H3.03353C3.48345 5.13903 3.88188 5.22576 4.22881 5.39923C4.57573 5.57269 4.92266 5.86812 5.26959 6.28551L10.2296 12.1806C10.7229 12.766 11.2243 13.1752 11.7338 13.4084C12.2434 13.6414 12.8478 13.758 13.5471 13.758H15.1733V15.7176C15.1733 15.9128 15.2275 16.0645 15.3359 16.1729C15.4443 16.2814 15.5988 16.3356 15.7994 16.3356C15.8915 16.3356 15.9783 16.3193 16.0596 16.2868C16.1408 16.2597 16.214 16.219 16.2791 16.1648L19.4746 13.506C19.621 13.3758 19.6942 13.2241 19.6942 13.0506C19.6942 12.8772 19.621 12.7253 19.4746 12.5953L16.2791 9.92824C16.214 9.87404 16.1408 9.83067 16.0596 9.79812C15.9783 9.76565 15.8915 9.74937 15.7994 9.74937C15.5988 9.74937 15.4443 9.80629 15.3359 9.92014C15.2275 10.0285 15.1733 10.1803 15.1733 10.3754V12.1318H13.5877C13.1107 12.1318 12.6987 12.0451 12.3518 11.8716C12.0103 11.6981 11.6634 11.4027 11.311 10.9853L6.3185 5.05772C5.83605 4.48854 5.3509 4.09012 4.86303 3.86245C4.38059 3.62936 3.78972 3.51281 3.09045 3.51281H1.22843C0.979069 3.51281 0.770375 3.5887 0.602331 3.74048C0.43971 3.89226 0.358398 4.08741 0.358398 4.32592Z" fill="#0A85D1"/>
</svg>
