<svg width="24" height="24" viewBox="0 0 24 24" fill="none" xmlns="http://www.w3.org/2000/svg">
<path d="M19.7016 7.28596L13.7971 2.50199C13.4523 2.21467 13.0069 2.05664 12.5472 2.05664H5.88126C4.78943 2.05664 3.91309 2.93298 3.91309 4.02482V20.2012C3.91309 21.2931 4.80379 22.1694 5.88126 22.1694H18.4661C19.5579 22.1694 20.4343 21.2931 20.4343 20.2012V8.82315C20.4343 8.23413 20.1613 7.65948 19.7016 7.28596ZM13.4236 4.02482L18.3943 8.36343C18.5954 8.53582 18.4805 8.86625 18.2075 8.86625H13.9551C13.6678 8.86625 13.4236 8.63639 13.4236 8.3347V4.02482ZM17.6616 20.1869H6.67141C6.34098 20.1869 6.06803 19.9139 6.06803 19.5691V4.6282C6.06803 4.29778 6.34098 4.02482 6.67141 4.02482H11.6278V8.88062C11.6278 9.87189 12.4323 10.6764 13.4236 10.6764H18.265V19.5835C18.265 19.9139 17.992 20.1869 17.6616 20.1869Z" fill="#FAA700"/>
<path d="M8.94141 13.376H15.4062H8.94141ZM8.94141 16.8095H15.4062H8.94141Z" fill="#FAA700"/>
<path d="M8.94141 13.376H15.4062M8.94141 16.8095H15.4062" stroke="#FAA700" stroke-width="0.873469" stroke-linecap="round" stroke-linejoin="round"/>
</svg>
