<svg width="23" height="23" viewBox="0 0 23 23" fill="none" xmlns="http://www.w3.org/2000/svg">
<path fill-rule="evenodd" clip-rule="evenodd" d="M22.5251 4.56927L19.5773 7.56104L19.5627 7.53169C18.1108 9.01294 17.0255 9.35021 14.9137 9.13027L13.4031 10.6555C13.9311 11.6234 13.7991 12.87 12.9925 13.6913C12.0099 14.7032 10.382 14.7032 9.3701 13.7206C8.35819 12.738 8.34349 11.1101 9.34074 10.0982C10.1474 9.2769 11.3793 9.13027 12.3619 9.64353L13.8724 8.11831C13.6231 6.00647 13.9311 4.92124 15.383 3.44002L18.3308 0.448242L19.152 3.82132L22.5251 4.56927ZM15.559 10.6848H15.955V10.7141C16.4976 10.7141 16.9816 10.6554 17.4362 10.5528C17.5389 11.0074 17.5976 11.4621 17.5976 11.946C17.5976 15.4951 14.7231 18.3695 11.1741 18.3695C7.62498 18.3695 4.75053 15.4951 4.75053 11.946C4.75053 8.39697 7.62498 5.52252 11.1741 5.52252C11.614 5.52252 12.054 5.56648 12.4646 5.65449C12.3473 6.22646 12.3033 6.84239 12.3473 7.53169C11.966 7.42901 11.5847 7.3557 11.1741 7.3557C8.65159 7.3557 6.59842 9.40888 6.59842 11.9314C6.59842 14.4538 8.65159 16.507 11.1741 16.507C13.6965 16.507 15.7497 14.4538 15.7497 11.9314C15.7497 11.4914 15.6764 11.0807 15.559 10.6848ZM19.6213 9.46754C19.9587 9.21824 20.2813 8.92493 20.6186 8.58761L21.3812 7.81034C21.8799 9.08626 22.1732 10.4648 22.1732 11.9167C22.1732 17.9882 17.2455 22.9159 11.174 22.9159C5.10241 22.9159 0.174805 17.9882 0.174805 11.9167C0.174805 5.84513 5.10241 0.917531 11.174 0.917531C12.5525 0.917531 13.8724 1.18151 15.0897 1.65081L14.3417 2.41342C14.0044 2.75073 13.7258 3.08803 13.4765 3.42534C12.7432 3.23469 11.9659 3.11736 11.174 3.11736C6.31966 3.11736 2.37464 7.06239 2.37464 11.9167C2.37464 16.771 6.31966 20.716 11.174 20.716C16.0283 20.716 19.9733 16.771 19.9733 11.9167C19.9733 11.0661 19.8413 10.2448 19.6213 9.46754Z" fill="#0A85D1"/>
</svg>
