<svg width="24" height="24" viewBox="0 0 24 24" fill="none" xmlns="http://www.w3.org/2000/svg">
<path d="M10.7071 20.4571H3.41829C2.89033 20.4571 2.45037 20.0172 2.45037 19.4892V10.3672C2.45037 9.79528 2.74368 9.47264 3.30097 9.47264H3.74093V7.8301H2.83167C1.61443 7.8301 0.631836 8.81269 0.631836 10.0299V19.9292C0.631836 21.1464 1.61443 22.129 2.83167 22.129H10.7071V20.4571ZM21.5303 7.81543H20.621V9.45797H21.105C21.6329 9.45797 21.8969 9.76595 21.8969 10.2499V19.5039C21.8969 20.0318 21.4716 20.4718 20.929 20.4718H13.6402V22.1143H21.5303C22.7475 22.1143 23.7301 21.1318 23.7301 19.9145V10.0153C23.7301 8.79802 22.7475 7.81543 21.5303 7.81543Z" fill="#EA4E43"/>
<path d="M19.6972 2.68262C17.1601 3.01993 14.1243 4.01718 12.1885 5.20509C10.2379 4.01718 7.20216 3.01993 4.67969 2.68262V17.7148C6.7622 17.9641 8.91803 18.4481 11.1032 19.2987L12.2031 19.7827L13.303 19.2987C15.4882 18.4481 17.644 17.9495 19.7266 17.7148V2.68262H19.6972ZM6.86486 16.0723V5.21976C8.43407 5.4984 10.2526 6.20235 11.0885 6.87697V17.2602C9.8713 16.7616 8.17009 16.3069 6.86486 16.0723ZM17.4974 16.0723C16.2068 16.3069 14.4909 16.7616 13.2737 17.2602V6.87697C14.095 6.18769 15.9282 5.4984 17.4974 5.21976V16.0723Z" fill="#EA4E43"/>
</svg>
